<?xml version="1.0" standalone="no"?>
<!DOCTYPE svg PUBLIC "-//W3C//DTD SVG 20010904//EN"
 "http://www.w3.org/TR/2001/REC-SVG-20010904/DTD/svg10.dtd">
<svg version="1.0" xmlns="http://www.w3.org/2000/svg"
 width="1023.000000pt" height="1024.000000pt" viewBox="0 0 1023.000000 1024.000000"
 preserveAspectRatio="xMidYMid meet">

<g transform="translate(0.000000,1024.000000) scale(0.100000,-0.100000)"
fill="rgb(246, 65, 45)" stroke="none">
<path d="M4840 10200 c-8 -5 -28 -10 -45 -10 -16 0 -73 -10 -125 -21 -52 -11
-106 -23 -120 -25 -14 -3 -34 -9 -45 -13 -11 -5 -51 -18 -90 -31 -69 -22 -275
-116 -285 -129 -3 -4 -12 -10 -20 -14 -16 -7 -66 -38 -116 -72 -94 -63 -266
-219 -349 -316 -71 -83 -113 -136 -130 -166 -11 -18 -23 -33 -27 -33 -4 0 -8
-5 -8 -10 0 -6 -17 -34 -38 -63 -21 -29 -46 -68 -56 -87 -9 -19 -35 -66 -57
-105 -21 -38 -42 -77 -45 -85 -4 -8 -24 -52 -45 -97 -22 -46 -39 -87 -39 -93
0 -10 -4 -21 -34 -77 -9 -17 -16 -40 -16 -51 0 -12 -4 -24 -10 -27 -5 -3 -10
-17 -10 -29 0 -13 -7 -29 -15 -36 -8 -7 -15 -25 -15 -41 0 -15 -4 -31 -10 -34
-5 -3 -10 -17 -10 -31 0 -13 -4 -32 -9 -42 -17 -30 -41 -120 -41 -149 0 -16
-4 -33 -8 -38 -9 -11 -33 -115 -56 -245 -20 -114 -24 -144 -37 -285 -5 -66
-14 -124 -19 -129 -6 -6 -10 -56 -10 -112 l0 -101 -50 -7 c-27 -4 -579 -7
-1227 -7 -1089 0 -1253 -3 -1308 -23 -53 -20 -123 -59 -151 -83 -36 -33 -84
-97 -84 -112 0 -6 -4 -19 -9 -29 -33 -68 -36 -81 -34 -172 2 -103 7 -182 22
-385 6 -71 15 -200 21 -285 6 -85 15 -159 21 -164 5 -6 9 -68 9 -140 0 -71 4
-143 9 -160 9 -29 21 -173 41 -506 5 -80 11 -156 14 -169 3 -13 10 -87 16
-165 7 -77 16 -195 21 -261 5 -66 12 -160 15 -210 2 -49 9 -139 15 -200 15
-157 25 -283 38 -495 7 -102 16 -198 22 -214 5 -16 9 -72 9 -124 0 -53 4 -121
10 -151 10 -59 27 -259 40 -471 5 -69 16 -199 25 -290 10 -91 21 -226 25 -300
5 -74 16 -209 25 -300 9 -91 20 -230 25 -310 4 -80 11 -163 15 -185 3 -22 10
-101 15 -175 15 -212 42 -406 59 -423 6 -6 11 -21 11 -34 0 -13 4 -31 9 -41
23 -45 41 -94 41 -112 0 -10 3 -20 8 -22 4 -1 22 -32 40 -68 36 -72 54 -102
63 -110 3 -3 20 -25 38 -50 33 -46 102 -121 139 -151 48 -40 166 -119 178
-119 7 0 14 -3 16 -7 5 -13 88 -53 108 -53 11 0 22 -5 25 -10 3 -6 16 -10 29
-10 12 0 26 -4 31 -9 16 -13 101 -32 220 -47 164 -21 7018 -21 7176 0 107 14
186 33 204 48 5 4 19 8 32 8 13 0 31 4 41 9 9 5 54 27 100 47 45 21 82 42 82
46 0 5 5 8 11 8 11 0 83 48 129 87 47 39 114 110 154 163 22 30 47 61 54 68 6
7 12 20 12 28 0 8 3 14 8 14 7 0 13 10 46 77 10 21 29 60 42 86 13 27 24 57
24 66 0 9 4 21 9 27 12 13 41 109 41 136 0 13 5 29 10 34 12 12 30 127 40 259
15 204 30 383 40 475 6 52 10 119 10 148 0 29 6 112 14 185 14 122 29 320 41
512 3 44 10 127 16 185 6 58 12 138 13 177 0 40 4 73 7 73 3 0 9 60 12 132 3
73 11 156 16 185 6 28 11 100 12 160 1 59 5 113 9 118 4 6 11 66 14 135 8 138
18 254 35 435 6 66 16 168 21 228 6 59 13 153 16 210 2 56 7 116 10 132 3 17
9 86 14 155 25 382 33 477 41 495 5 11 10 79 13 150 2 72 11 202 21 290 10 88
21 223 25 300 5 77 15 217 24 310 23 255 37 503 31 570 -6 66 -35 165 -47 165
-4 0 -8 8 -8 18 0 38 -152 162 -198 162 -10 0 -22 4 -27 9 -6 5 -32 11 -60 14
-27 3 -590 6 -1250 7 -660 0 -1218 4 -1240 8 l-40 7 -7 120 c-3 66 -14 170
-23 230 -8 61 -20 139 -24 175 -5 36 -16 94 -25 130 -9 36 -19 81 -22 100 -3
19 -9 44 -14 55 -11 27 -31 102 -37 143 -3 18 -9 35 -14 38 -5 3 -9 16 -9 30
0 14 -4 23 -9 20 -5 -3 -12 13 -15 36 -9 54 -36 137 -47 144 -5 3 -9 18 -9 34
0 16 -4 31 -9 35 -5 3 -12 19 -16 35 -4 17 -11 30 -16 30 -5 0 -9 8 -9 17 0
10 -11 40 -24 68 -14 27 -32 69 -42 93 -10 23 -21 42 -26 42 -4 0 -8 7 -8 15
0 9 -11 33 -25 55 -14 22 -25 42 -25 45 0 3 -22 41 -50 85 -27 44 -50 82 -50
85 0 3 -6 13 -12 21 -7 8 -17 20 -23 27 -5 7 -16 24 -23 38 -8 15 -25 38 -38
52 -13 14 -24 29 -24 33 0 23 -319 350 -371 381 -16 10 -29 21 -29 25 0 4 -6
8 -14 8 -8 0 -16 3 -18 8 -5 12 -76 62 -87 62 -6 0 -11 5 -11 10 0 6 -5 10
-12 10 -6 0 -19 6 -27 14 -35 30 -281 146 -311 146 -10 0 -22 5 -25 10 -3 6
-17 10 -30 10 -13 0 -27 5 -30 10 -3 6 -19 10 -34 10 -15 0 -31 3 -35 7 -10
11 -164 42 -208 43 -20 0 -40 5 -43 10 -8 13 -485 13 -505 0z m345 -471 c39
-5 90 -12 115 -14 55 -5 146 -27 156 -38 4 -4 20 -7 35 -7 15 0 31 -4 34 -10
3 -5 13 -10 22 -10 19 0 166 -71 171 -82 2 -5 10 -8 18 -8 8 0 20 -5 27 -10 7
-6 36 -26 65 -46 127 -84 286 -246 405 -410 20 -29 37 -55 37 -60 0 -4 6 -15
14 -23 21 -24 116 -198 116 -213 0 -4 11 -26 25 -48 14 -22 25 -46 25 -53 0
-7 11 -37 25 -65 14 -29 25 -58 25 -66 0 -8 5 -18 10 -21 6 -3 10 -16 10 -28
0 -12 7 -31 15 -41 8 -11 15 -28 15 -38 0 -10 4 -26 9 -36 12 -25 32 -82 41
-122 5 -19 14 -55 20 -80 5 -25 15 -54 20 -65 5 -11 11 -38 13 -60 3 -22 12
-69 22 -105 18 -70 22 -97 56 -373 17 -138 19 -181 10 -190 -15 -15 -3224 -23
-3264 -8 l-25 10 5 108 c3 59 9 112 14 117 5 6 9 43 9 82 0 40 5 85 10 99 6
15 15 61 20 103 12 94 25 162 40 222 7 25 16 63 22 85 5 22 21 74 34 116 13
42 24 84 24 92 0 9 7 33 16 54 9 21 20 47 24 58 8 21 37 97 50 130 5 11 11 27
14 35 3 8 10 22 14 30 23 40 32 61 32 75 0 9 7 18 15 21 8 4 15 15 15 25 0 10
5 19 10 19 6 0 10 8 10 17 0 9 6 24 14 32 8 9 21 27 28 41 28 51 105 165 121
179 10 7 17 18 17 22 0 20 153 178 235 244 27 22 55 45 62 52 7 6 29 21 50 34
21 13 40 26 43 29 3 3 50 27 105 54 55 26 108 52 117 57 10 5 27 9 38 9 11 0
20 5 20 10 0 6 15 10 34 10 19 0 38 5 41 10 3 6 16 10 29 10 12 0 26 3 30 8 8
8 6 7 151 22 55 5 105 12 110 14 16 7 36 6 110 -5z m297 -3590 c220 -33 488
-105 648 -176 94 -42 265 -128 268 -135 2 -4 8 -8 12 -8 5 0 28 -13 52 -29 83
-56 116 -130 94 -206 -19 -61 -85 -129 -141 -145 -65 -18 -98 -10 -200 50
-126 75 -284 146 -430 195 -98 33 -274 75 -312 75 -17 0 -44 5 -60 11 -36 14
-389 14 -451 0 -177 -40 -273 -65 -278 -72 -3 -5 -14 -9 -25 -9 -35 0 -180
-70 -270 -131 -64 -43 -172 -145 -213 -201 -42 -58 -91 -157 -111 -223 -32
-105 -24 -297 16 -365 4 -8 19 -35 31 -60 48 -93 217 -246 373 -337 83 -49
202 -105 365 -175 14 -6 33 -14 42 -19 10 -5 26 -9 36 -9 10 0 22 -4 27 -9 6
-5 51 -21 100 -36 50 -15 101 -30 115 -35 14 -4 45 -14 70 -21 66 -19 272 -86
322 -105 216 -82 515 -220 595 -275 23 -16 44 -29 48 -29 10 0 134 -88 205
-145 73 -59 201 -184 242 -236 48 -62 65 -84 72 -99 4 -8 20 -37 36 -65 42
-72 56 -101 83 -180 41 -120 47 -160 47 -335 0 -164 -5 -205 -40 -310 -39
-117 -118 -254 -195 -337 -11 -11 -31 -33 -44 -47 -83 -92 -243 -207 -378
-271 -43 -20 -89 -43 -103 -50 -38 -20 -231 -83 -307 -100 -245 -55 -350 -67
-610 -66 -257 0 -326 7 -603 63 -49 10 -152 37 -220 58 -14 4 -45 14 -70 21
-25 7 -54 19 -65 26 -11 7 -28 13 -37 13 -10 0 -26 4 -36 9 -18 9 -63 28 -97
41 -75 29 -288 133 -315 154 -8 7 -28 18 -45 26 -16 8 -43 23 -60 35 -16 11
-42 27 -58 34 -15 8 -27 18 -27 23 0 4 -5 8 -11 8 -19 0 -96 67 -117 103 -38
61 -33 135 12 185 50 55 107 82 175 82 54 0 64 -4 173 -73 176 -111 543 -287
597 -287 9 0 21 -4 27 -8 5 -5 27 -13 49 -20 22 -6 72 -20 110 -31 122 -35
204 -52 410 -82 91 -13 479 -7 560 9 28 6 75 15 105 20 57 11 172 46 202 63
10 5 24 9 32 9 23 0 226 108 282 150 28 21 70 58 93 82 54 56 151 200 151 225
0 10 4 23 9 28 23 23 35 107 35 240 0 133 -12 217 -35 240 -5 5 -9 15 -9 22 0
29 -98 162 -180 244 -140 141 -360 283 -595 384 -22 9 -53 23 -70 30 -143 61
-225 91 -435 155 -233 72 -429 140 -494 171 -22 10 -44 19 -49 19 -15 0 -280
131 -335 166 -29 19 -54 34 -56 34 -11 0 -159 104 -217 151 -164 135 -301 323
-341 469 -28 102 -39 235 -28 345 11 107 46 239 80 300 9 16 29 53 44 80 16
28 34 57 41 65 7 8 14 20 16 26 15 45 193 225 300 303 114 84 252 161 359 200
19 7 44 17 55 21 71 30 220 66 330 81 38 6 71 12 74 14 9 10 484 5 553 -6z"/>
</g>
</svg>
